<?xml version="1.0" encoding="UTF-8"?> <svg xmlns="http://www.w3.org/2000/svg" width="266" height="62" viewBox="0 0 266 62" fill="none"> <path fill-rule="evenodd" clip-rule="evenodd" d="M48.3294 19.71H27.3672L24.4503 24.8169L22.2742 28.6267L20.9828 30.8876L27.4204 42.1782H29.7456H36.6779L36.6777 42.178H37.9395L31.9187 30.8876H37.3853H48.5423L60.0011 52.8174L63.1732 58.8882H56.3237H18.429L3 30.8876L18.429 3H50.1177H56.9484L53.8171 9.07078L48.3294 19.71ZM41.9942 39.2471L40.7323 36.9584H44.8648L53.1515 52.8174H22.0153L9.93468 30.8936L22.0083 9.07078H46.9864L44.63 13.6392H27.3672H23.8435L22.0958 16.699L15.7113 27.8767L13.993 30.885L15.7091 33.8946L22.1467 45.1852L23.8936 48.249H27.4204H36.6779H46.9572L41.9942 39.2471Z" fill="#4DABEC"></path> <path d="M18.429 3L21.7809 9.2098L9.78383 30.8925L3 30.8869L18.429 3Z" fill="#3A81BF"></path> <path d="M18.429 58.8882L21.7809 52.6784L9.78206 30.8925L3 30.8876L18.429 58.8882Z" fill="#2A6291"></path> <path d="M24.0692 13.5005L27.3678 19.7103L20.9834 30.8879H14.1201L24.0692 13.5005Z" fill="#3A81BF"></path> <path d="M24.1213 48.3877L27.4199 42.1779L20.9823 30.8874H14.1338L24.1213 48.3877Z" fill="#2A6291"></path> <path d="M27.4207 42.1782L37.955 42.1782L34.6032 48.388H24.1221L27.4207 42.1782Z" fill="#3A81BF"></path> <path d="M21.7815 52.6777H53.2373L49.8198 58.8875H18.4297L21.7815 52.6777Z" fill="#3A81BF"></path> <path d="M40.6551 37.0933L46.8821 48.3848H34.6006L40.6551 37.0933Z" fill="#2A6291"></path> <path d="M47.0741 9.20947L50.5271 15.4488L48.3286 19.7105L44.8604 13.5009L47.0741 9.20947Z" fill="#3A81BF"></path> <path d="M70.5036 22.4026C70.5036 22.2729 70.6088 22.1677 70.7386 22.1677H77.3024C77.4322 22.1677 77.5375 22.2729 77.5364 22.4027C77.5308 23.078 77.501 23.6968 77.447 24.2589C77.3867 24.8856 77.2661 25.4676 77.0853 26.0048C76.8322 26.7595 76.4886 27.431 76.0547 28.0193C75.6207 28.5949 75.1084 29.0809 74.5177 29.4774C73.9391 29.8612 73.3003 30.1553 72.6011 30.36C71.9019 30.5646 71.1666 30.667 70.3952 30.667C69.3344 30.667 68.364 30.4815 67.484 30.1106C66.6161 29.7397 65.8687 29.2216 65.2419 28.5565C64.6151 27.8786 64.1269 27.0728 63.7773 26.1391C63.4277 25.1926 63.2529 24.1502 63.2529 23.0118C63.2529 21.8863 63.4217 20.8566 63.7592 19.9229C64.1088 18.9764 64.597 18.1706 65.2238 17.5055C65.8627 16.8404 66.6282 16.3224 67.5202 15.9515C68.4122 15.5805 69.4067 15.3951 70.5036 15.3951C71.9261 15.3951 73.1737 15.7212 74.2465 16.3735C75.2622 16.9911 76.078 17.9296 76.6939 19.1891C76.7515 19.3069 76.6976 19.4481 76.5775 19.5009L73.6562 20.7841C73.5342 20.8377 73.3926 20.7789 73.3387 20.6571C73.0388 19.9806 72.6603 19.4864 72.2033 19.1747C71.7091 18.8293 71.1425 18.6567 70.5036 18.6567C69.9732 18.6567 69.4911 18.7654 69.0571 18.9828C68.6232 19.1875 68.2495 19.488 67.9361 19.8845C67.6347 20.2683 67.3936 20.7351 67.2128 21.2851C67.044 21.8351 66.9597 22.449 66.9597 23.1269C66.9597 23.7409 67.032 24.3101 67.1766 24.8345C67.3333 25.3589 67.5624 25.813 67.8637 26.1967C68.1651 26.5804 68.5388 26.881 68.9848 27.0984C69.4308 27.3031 69.9491 27.4054 70.5398 27.4054C70.8894 27.4054 71.2269 27.367 71.5524 27.2903C71.8778 27.2007 72.1671 27.0664 72.4203 26.8874C72.6855 26.6955 72.9025 26.4525 73.0712 26.1583C73.2032 25.9282 73.302 25.659 73.3677 25.3506C73.3974 25.2108 73.2869 25.0839 73.1439 25.0839H70.7386C70.6088 25.0839 70.5036 24.9787 70.5036 24.8489V22.4026Z" fill="#3A81BF"></path> <path d="M79.47 20.6567C79.47 20.5269 79.5752 20.4217 79.7049 20.4217H82.5078C82.6376 20.4217 82.7427 20.5269 82.7427 20.6567V21.1779C82.7427 21.4167 83.086 21.5207 83.2456 21.343C83.4811 21.0808 83.7414 20.8633 84.0265 20.6903C84.5328 20.3706 85.1235 20.2107 85.7985 20.2107C85.8829 20.2107 85.9733 20.2107 86.0698 20.2107C86.1234 20.2107 86.1801 20.2138 86.2397 20.2201C86.3516 20.2319 86.4314 20.3304 86.4314 20.443V23.1776C86.4314 23.3547 86.2414 23.4699 86.0753 23.4082C85.7433 23.2846 85.3919 23.2229 85.021 23.2229C84.2616 23.2229 83.689 23.4659 83.3033 23.9519C82.9296 24.4252 82.7427 25.1223 82.7427 26.0432V30.0291C82.7427 30.1589 82.6375 30.2641 82.5078 30.2641H79.7049C79.5752 30.2641 79.47 30.1589 79.47 30.0291V20.6567Z" fill="#3A81BF"></path> <path d="M90.9305 20.4217C91.0603 20.4217 91.1655 20.5269 91.1655 20.6567V25.9664C91.1655 27.1815 91.72 27.7891 92.829 27.7891C93.938 27.7891 94.4925 27.1815 94.4925 25.9664V20.6567C94.4925 20.5269 94.5977 20.4217 94.7275 20.4217H97.5303C97.6601 20.4217 97.7653 20.5269 97.7653 20.6567V26.6379C97.7653 27.9682 97.3494 28.9658 96.5177 29.6309C95.698 30.296 94.4684 30.6286 92.829 30.6286C91.1896 30.6286 89.954 30.296 89.1223 29.6309C88.3026 28.9658 87.8927 27.9682 87.8927 26.6379V20.6567C87.8927 20.5269 87.9979 20.4217 88.1277 20.4217H90.9305Z" fill="#3A81BF"></path> <path d="M104.986 27.0075C104.889 27.164 105.001 27.367 105.186 27.367H108.433C108.562 27.367 108.667 27.4722 108.667 27.602V30.0291C108.667 30.1589 108.562 30.2641 108.433 30.2641H99.6908C99.5059 30.2641 99.3934 30.0603 99.492 29.9039L103.414 23.679C103.512 23.5226 103.4 23.3188 103.215 23.3188H100.097C99.967 23.3188 99.8618 23.2136 99.8618 23.0838V20.6567C99.8618 20.5269 99.967 20.4217 100.097 20.4217H108.678C108.862 20.4217 108.975 20.6247 108.877 20.7812L104.986 27.0075Z" fill="#3A81BF"></path> <path d="M113.728 25.2949C113.728 25.6275 113.782 25.9345 113.891 26.2159C114.011 26.4845 114.162 26.7211 114.343 26.9257C114.536 27.1304 114.759 27.2903 115.012 27.4054C115.277 27.5205 115.554 27.5781 115.843 27.5781C116.133 27.5781 116.404 27.5205 116.657 27.4054C116.922 27.2903 117.145 27.1304 117.326 26.9257C117.519 26.7211 117.67 26.4845 117.778 26.2159C117.899 25.9345 117.959 25.6339 117.959 25.3141C117.959 25.0072 117.899 24.7194 117.778 24.4508C117.67 24.1694 117.519 23.9264 117.326 23.7217C117.145 23.5171 116.922 23.3572 116.657 23.2421C116.404 23.1269 116.133 23.0694 115.843 23.0694C115.554 23.0694 115.277 23.1269 115.012 23.2421C114.759 23.3572 114.536 23.5171 114.343 23.7217C114.162 23.9264 114.011 24.163 113.891 24.4316C113.782 24.7002 113.728 24.988 113.728 25.2949ZM110.274 25.2566C110.274 24.5275 110.413 23.8496 110.69 23.2229C110.967 22.5833 111.353 22.0334 111.847 21.5729C112.342 21.0996 112.926 20.7287 113.601 20.4601C114.288 20.1915 115.036 20.0572 115.843 20.0572C116.639 20.0572 117.374 20.1915 118.049 20.4601C118.737 20.7159 119.327 21.0805 119.821 21.5537C120.328 22.0142 120.719 22.5706 120.997 23.2229C121.274 23.8624 121.413 24.5723 121.413 25.3525C121.413 26.1327 121.268 26.849 120.979 27.5013C120.701 28.1408 120.316 28.6972 119.821 29.1705C119.327 29.6309 118.73 29.9891 118.031 30.2449C117.344 30.5007 116.597 30.6286 115.789 30.6286C114.994 30.6286 114.258 30.5007 113.583 30.2449C112.908 29.9891 112.324 29.6245 111.829 29.1513C111.347 28.678 110.967 28.1153 110.69 27.4629C110.413 26.7978 110.274 26.0624 110.274 25.2566Z" fill="#3A81BF"></path> <path d="M130.692 25.3717C130.692 25.0647 130.638 24.7769 130.529 24.5083C130.433 24.2269 130.288 23.9839 130.095 23.7793C129.902 23.5746 129.673 23.4147 129.408 23.2996C129.155 23.1717 128.878 23.1078 128.576 23.1078C128.287 23.1078 128.016 23.1653 127.763 23.2804C127.51 23.3955 127.287 23.5554 127.094 23.7601C126.913 23.9647 126.762 24.2077 126.642 24.4891C126.533 24.7577 126.479 25.0455 126.479 25.3525C126.479 25.6595 126.533 25.9473 126.642 26.2159C126.75 26.4845 126.901 26.7211 127.094 26.9257C127.287 27.1176 127.51 27.2775 127.763 27.4054C128.028 27.5205 128.305 27.5781 128.595 27.5781C128.884 27.5781 129.155 27.5205 129.408 27.4054C129.661 27.2903 129.878 27.1304 130.059 26.9257C130.252 26.7211 130.403 26.4845 130.511 26.2159C130.632 25.9473 130.692 25.6659 130.692 25.3717ZM126.569 34.9407C126.569 35.0704 126.464 35.1756 126.334 35.1756H123.532C123.402 35.1756 123.297 35.0704 123.297 34.9407V20.6567C123.297 20.5269 123.402 20.4217 123.532 20.4217H126.334C126.464 20.4217 126.569 20.5269 126.569 20.6567V20.8095C126.569 21.0354 126.874 21.144 127.041 20.9912C127.678 20.4069 128.473 20.1148 129.426 20.1148C130.089 20.1148 130.704 20.2555 131.271 20.5369C131.849 20.8055 132.349 21.1764 132.771 21.6496C133.193 22.1229 133.519 22.6793 133.748 23.3188C133.989 23.9583 134.109 24.6426 134.109 25.3717C134.109 26.1007 133.989 26.7786 133.748 27.4054C133.519 28.0321 133.193 28.5821 132.771 29.0554C132.362 29.5286 131.873 29.8995 131.307 30.1681C130.74 30.4367 130.125 30.571 129.462 30.571C128.515 30.571 127.696 30.288 127.008 29.7219C126.842 29.5858 126.569 29.6957 126.569 29.9102V34.9407Z" fill="#3A81BF"></path> <path d="M142.462 23.9136C142.613 23.9136 142.725 23.7736 142.676 23.6315C142.552 23.2742 142.356 22.9781 142.086 22.7432C141.749 22.449 141.339 22.302 140.857 22.302C140.351 22.302 139.935 22.4427 139.609 22.724C139.354 22.9537 139.174 23.26 139.071 23.6429C139.033 23.783 139.144 23.9136 139.289 23.9136H142.462ZM139.157 25.9281C139.027 25.9281 138.921 26.0338 138.928 26.1634C138.996 27.503 139.657 28.1728 140.911 28.1728C141.577 28.1728 142.09 27.9038 142.449 27.3657C142.495 27.2965 142.572 27.2519 142.655 27.2519H145.374C145.53 27.2519 145.642 27.4016 145.592 27.5494C144.9 29.6022 143.333 30.6286 140.893 30.6286C140.11 30.6286 139.392 30.5071 138.741 30.2641C138.09 30.0083 137.53 29.6501 137.06 29.1897C136.602 28.7292 136.246 28.1792 135.993 27.5397C135.74 26.9002 135.613 26.1839 135.613 25.3909C135.613 24.5723 135.734 23.8368 135.975 23.1845C136.216 22.5194 136.56 21.9566 137.006 21.4962C137.452 21.0357 137.988 20.684 138.615 20.4409C139.254 20.1851 139.971 20.0572 140.767 20.0572C141.55 20.0572 142.255 20.1851 142.882 20.4409C143.509 20.684 144.039 21.0421 144.473 21.5153C144.907 21.9886 145.239 22.5706 145.468 23.2612C145.697 23.9391 145.811 24.7066 145.811 25.5635V25.6931C145.811 25.8229 145.706 25.9281 145.576 25.9281H139.157Z" fill="#3A81BF"></path> <path d="M147.682 20.6567C147.682 20.5269 147.787 20.4217 147.917 20.4217H150.72C150.85 20.4217 150.955 20.5269 150.955 20.6567V21.1779C150.955 21.4167 151.298 21.5207 151.458 21.343C151.693 21.0808 151.953 20.8633 152.239 20.6903C152.745 20.3706 153.336 20.2107 154.011 20.2107C154.095 20.2107 154.185 20.2107 154.282 20.2107C154.335 20.2107 154.392 20.2138 154.452 20.2201C154.564 20.2319 154.643 20.3304 154.643 20.443V23.1776C154.643 23.3547 154.453 23.4699 154.287 23.4082C153.955 23.2846 153.604 23.2229 153.233 23.2229C152.474 23.2229 151.901 23.4659 151.515 23.9519C151.142 24.4252 150.955 25.1223 150.955 26.0432V30.0291C150.955 30.1589 150.85 30.2641 150.72 30.2641H147.917C147.787 30.2641 147.682 30.1589 147.682 30.0291V20.6567Z" fill="#3A81BF"></path> <path d="M162.698 23.9136C162.849 23.9136 162.961 23.7736 162.912 23.6315C162.788 23.2742 162.592 22.9781 162.322 22.7432C161.985 22.449 161.575 22.302 161.093 22.302C160.586 22.302 160.171 22.4427 159.845 22.724C159.589 22.9537 159.41 23.26 159.307 23.6429C159.269 23.783 159.38 23.9136 159.525 23.9136H162.698ZM159.393 25.9281C159.263 25.9281 159.157 26.0338 159.164 26.1634C159.231 27.503 159.892 28.1728 161.147 28.1728C161.813 28.1728 162.325 27.9038 162.685 27.3657C162.731 27.2965 162.807 27.2519 162.891 27.2519H165.61C165.766 27.2519 165.878 27.4016 165.828 27.5494C165.136 29.6022 163.569 30.6286 161.129 30.6286C160.345 30.6286 159.628 30.5071 158.977 30.2641C158.326 30.0083 157.766 29.6501 157.296 29.1897C156.838 28.7292 156.482 28.1792 156.229 27.5397C155.976 26.9002 155.849 26.1839 155.849 25.3909C155.849 24.5723 155.97 23.8368 156.211 23.1845C156.452 22.5194 156.795 21.9566 157.241 21.4962C157.687 21.0357 158.224 20.684 158.851 20.4409C159.49 20.1851 160.207 20.0572 161.002 20.0572C161.786 20.0572 162.491 20.1851 163.118 20.4409C163.745 20.684 164.275 21.0421 164.709 21.5153C165.143 21.9886 165.475 22.5706 165.704 23.2612C165.933 23.9391 166.047 24.7066 166.047 25.5635V25.6931C166.047 25.8229 165.942 25.9281 165.812 25.9281H159.393Z" fill="#3A81BF"></path> <path d="M169.89 20.4217C169.984 20.4217 170.068 20.477 170.106 20.5626L172.036 24.9792C172.118 25.1663 172.383 25.1671 172.466 24.9805L174.43 20.5613C174.468 20.4764 174.552 20.4217 174.645 20.4217H177.768C177.941 20.4217 178.055 20.6041 177.979 20.7602L173.381 30.1326C173.342 30.2131 173.26 30.2641 173.17 30.2641H171.276C171.186 30.2641 171.104 30.2126 171.065 30.1316L166.519 20.7592C166.443 20.6032 166.557 20.4217 166.73 20.4217H169.89Z" fill="#3A81BF"></path> <path d="M181.887 25.2949C181.887 25.6275 181.941 25.9345 182.05 26.2159C182.17 26.4845 182.321 26.7211 182.502 26.9257C182.695 27.1304 182.918 27.2903 183.171 27.4054C183.436 27.5205 183.713 27.5781 184.003 27.5781C184.292 27.5781 184.563 27.5205 184.816 27.4054C185.081 27.2903 185.304 27.1304 185.485 26.9257C185.678 26.7211 185.829 26.4845 185.937 26.2159C186.058 25.9345 186.118 25.6339 186.118 25.3141C186.118 25.0072 186.058 24.7194 185.937 24.4508C185.829 24.1694 185.678 23.9264 185.485 23.7217C185.304 23.5171 185.081 23.3572 184.816 23.2421C184.563 23.1269 184.292 23.0694 184.003 23.0694C183.713 23.0694 183.436 23.1269 183.171 23.2421C182.918 23.3572 182.695 23.5171 182.502 23.7217C182.321 23.9264 182.17 24.163 182.05 24.4316C181.941 24.7002 181.887 24.988 181.887 25.2949ZM178.433 25.2566C178.433 24.5275 178.572 23.8496 178.849 23.2229C179.127 22.5833 179.512 22.0334 180.006 21.5729C180.501 21.0996 181.085 20.7287 181.76 20.4601C182.447 20.1915 183.195 20.0572 184.003 20.0572C184.798 20.0572 185.533 20.1915 186.208 20.4601C186.896 20.7159 187.486 21.0805 187.98 21.5537C188.487 22.0142 188.879 22.5706 189.156 23.2229C189.433 23.8624 189.572 24.5723 189.572 25.3525C189.572 26.1327 189.427 26.849 189.138 27.5013C188.86 28.1408 188.475 28.6972 187.98 29.1705C187.486 29.6309 186.89 29.9891 186.19 30.2449C185.503 30.5007 184.756 30.6286 183.948 30.6286C183.153 30.6286 182.417 30.5007 181.742 30.2449C181.067 29.9891 180.483 29.6245 179.988 29.1513C179.506 28.678 179.127 28.1153 178.849 27.4629C178.572 26.7978 178.433 26.0624 178.433 25.2566Z" fill="#3A81BF"></path> <path d="M196.454 27.0075C196.356 27.164 196.469 27.367 196.653 27.367H199.9C200.03 27.367 200.135 27.4722 200.135 27.602V30.0291C200.135 30.1589 200.03 30.2641 199.9 30.2641H191.158C190.973 30.2641 190.861 30.0603 190.959 29.9039L194.881 23.679C194.98 23.5225 194.867 23.3188 194.682 23.3188H191.564C191.434 23.3188 191.329 23.2136 191.329 23.0838V20.6567C191.329 20.5269 191.434 20.4217 191.564 20.4217H200.145C200.329 20.4217 200.442 20.6247 200.344 20.7812L196.454 27.0075Z" fill="#3A81BF"></path> <path d="M205.141 14.3398C205.271 14.3398 205.376 14.445 205.376 14.5748V23.3905C205.376 23.6017 205.633 23.7057 205.78 23.5539L208.742 20.4933C208.787 20.4476 208.848 20.4217 208.911 20.4217H212.72C212.93 20.4217 213.035 20.6774 212.884 20.8246L208.812 24.8087C208.721 24.8978 208.718 25.0432 208.805 25.1365L213.2 29.8692C213.34 30.0195 213.233 30.2641 213.028 30.2641H209.079C209.012 30.2641 208.949 30.2357 208.904 30.186L205.786 26.711C205.642 26.5506 205.376 26.6524 205.376 26.8679V30.0291C205.376 30.1589 205.271 30.2641 205.141 30.2641H202.338C202.208 30.2641 202.103 30.1589 202.103 30.0291V14.5748C202.103 14.445 202.208 14.3398 202.338 14.3398H205.141Z" fill="#3A81BF"></path> <path d="M217.766 20.4217C217.896 20.4217 218.001 20.5269 218.001 20.6567V30.0291C218.001 30.1589 217.896 30.2641 217.766 30.2641H214.964C214.834 30.2641 214.729 30.1589 214.729 30.0291V20.6567C214.729 20.5269 214.834 20.4217 214.964 20.4217H217.766ZM214.512 16.6421C214.512 16.3735 214.56 16.1241 214.656 15.8939C214.753 15.6509 214.885 15.4398 215.054 15.2608C215.223 15.0817 215.416 14.941 215.633 14.8387C215.862 14.7364 216.103 14.6852 216.356 14.6852C216.609 14.6852 216.844 14.7364 217.061 14.8387C217.29 14.941 217.489 15.0817 217.658 15.2608C217.827 15.4398 217.959 15.6509 218.056 15.8939C218.152 16.1241 218.2 16.3735 218.2 16.6421C218.2 16.9107 218.152 17.1666 218.056 17.4096C217.959 17.6398 217.827 17.8445 217.658 18.0235C217.489 18.2026 217.29 18.3433 217.061 18.4456C216.844 18.5479 216.609 18.5991 216.356 18.5991C216.103 18.5991 215.862 18.5479 215.633 18.4456C215.416 18.3433 215.223 18.2026 215.054 18.0235C214.885 17.8445 214.753 17.6398 214.656 17.4096C214.56 17.1666 214.512 16.9107 214.512 16.6421Z" fill="#3A81BF"></path> <path d="M219.117 31.5351C219.117 31.4053 219.222 31.3001 219.352 31.3001H229.098C229.228 31.3001 229.333 31.4053 229.333 31.5351V33.4634C229.333 33.5931 229.228 33.6983 229.098 33.6983H219.352C219.222 33.6983 219.117 33.5931 219.117 33.4634V31.5351Z" fill="#2A6291"></path> <path d="M234.747 21.6746C234.747 21.5496 234.857 21.4578 234.982 21.4578V21.4578C235.054 21.4578 235.115 21.4578 235.163 21.4578C235.609 21.4578 235.971 21.3171 236.248 21.0357C236.525 20.7543 236.664 20.3898 236.664 19.9421C236.664 19.5072 236.531 19.1555 236.266 18.8869C236.013 18.6183 235.681 18.484 235.271 18.484C234.837 18.484 234.488 18.6375 234.223 18.9444C234.001 19.2004 233.873 19.5187 233.836 19.8993C233.823 20.0285 233.72 20.134 233.59 20.134H230.815C230.675 20.134 230.565 20.012 230.585 19.8733C230.678 19.2238 230.842 18.6392 231.076 18.1194C231.354 17.5311 231.703 17.0386 232.125 16.6421C232.547 16.2328 233.041 15.9259 233.608 15.7212C234.174 15.5038 234.801 15.3951 235.488 15.3951C236.163 15.3951 236.772 15.4974 237.315 15.702C237.869 15.8939 238.339 16.1753 238.725 16.5462C239.123 16.9043 239.424 17.3456 239.629 17.87C239.846 18.3817 239.955 18.9572 239.955 19.5968C239.955 20.2874 239.828 20.8566 239.575 21.3043C239.403 21.6139 239.177 21.8944 238.895 22.1457C238.75 22.2745 238.787 22.5276 238.961 22.6132C239.454 22.8565 239.852 23.2132 240.153 23.6833C240.551 24.2717 240.75 25.0008 240.75 25.8705C240.75 26.5868 240.618 27.2391 240.352 27.8275C240.087 28.4158 239.713 28.9211 239.231 29.3431C238.761 29.7652 238.195 30.0914 237.532 30.3216C236.881 30.5519 236.163 30.667 235.38 30.667C234.331 30.667 233.385 30.4495 232.541 30.0147C231.697 29.5798 231.022 28.8891 230.516 27.9426C230.287 27.5205 230.13 27.0984 230.046 26.6763C229.987 26.3304 229.952 25.9803 229.941 25.6258C229.937 25.4961 230.043 25.3909 230.172 25.3909H233.218C233.345 25.3909 233.448 25.4913 233.46 25.6172C233.514 26.1852 233.696 26.6278 234.006 26.9449C234.355 27.2903 234.825 27.4629 235.416 27.4629C236.043 27.4629 236.501 27.2839 236.79 26.9257C237.08 26.5676 237.224 26.1263 237.224 25.6019C237.224 24.9752 237.049 24.5019 236.7 24.1822C236.35 23.8624 235.934 23.7025 235.452 23.7025C235.332 23.7025 235.217 23.7153 235.109 23.7409C235.082 23.744 235.055 23.7475 235.028 23.7513C234.881 23.7716 234.747 23.6614 234.747 23.5138V21.6746Z" fill="#2A6291"></path> <path d="M245.257 19.2178C245.257 19.088 245.151 18.9828 245.022 18.9828H243.503C243.373 18.9828 243.268 18.8776 243.268 18.7478V16.0329C243.268 15.9032 243.373 15.798 243.503 15.798H248.566C248.695 15.798 248.801 15.9032 248.801 16.0329V30.0291C248.801 30.1589 248.695 30.2641 248.566 30.2641H245.492C245.362 30.2641 245.257 30.1589 245.257 30.0291V19.2178Z" fill="#2A6291"></path> <path d="M263.001 30.0291C263.001 30.1589 262.895 30.2641 262.766 30.2641H252.556C252.352 30.2641 252.245 30.0221 252.382 29.8711L255.406 26.542C256.298 25.5571 256.998 24.7258 257.504 24.0479C258.01 23.3572 258.384 22.7752 258.625 22.302C258.878 21.8287 259.035 21.445 259.095 21.1508C259.155 20.8566 259.185 20.6072 259.185 20.4026C259.185 20.1851 259.149 19.9741 259.077 19.7694C259.017 19.5648 258.92 19.3857 258.788 19.2322C258.655 19.0659 258.492 18.938 258.299 18.8485C258.119 18.7462 257.902 18.695 257.648 18.695C257.166 18.695 256.787 18.8613 256.509 19.1939C256.244 19.5264 256.112 19.9421 256.112 20.4409C256.112 20.5306 256.119 20.6464 256.134 20.7881C256.148 20.9295 256.039 21.0549 255.897 21.0549H252.531C252.402 21.0549 252.296 20.9497 252.3 20.8199C252.321 20.0678 252.447 19.3786 252.676 18.7526C252.941 18.0619 253.309 17.4671 253.779 16.9683C254.249 16.4695 254.804 16.0858 255.443 15.8172C256.093 15.5485 256.805 15.4142 257.576 15.4142C258.336 15.4142 259.035 15.5422 259.674 15.798C260.325 16.0538 260.885 16.4119 261.355 16.8724C261.825 17.3328 262.193 17.8828 262.458 18.5224C262.723 19.1491 262.856 19.8334 262.856 20.5752C262.856 21.3682 262.693 22.1037 262.368 22.7816C262.054 23.4467 261.548 24.131 260.849 24.8345L258.993 26.6775C258.844 26.8253 258.949 27.0792 259.159 27.0792H262.766C262.895 27.0792 263.001 27.1844 263.001 27.3142V30.0291Z" fill="#2A6291"></path> <path d="M63.3723 47.1633C63.3064 47.1633 63.2529 47.1099 63.2529 47.0439V39.0284C63.2529 38.9624 63.3064 38.909 63.3723 38.909H64.4218C64.9425 38.909 65.3573 38.9517 65.6663 39.0373C65.9787 39.1228 66.2424 39.2672 66.4574 39.4703C66.6757 39.6806 66.8487 39.9425 66.9763 40.2562C67.1073 40.5734 67.1728 40.8942 67.1728 41.2185C67.1728 41.7451 67.0038 42.1997 66.6659 42.5823C66.6073 42.6486 66.6301 42.7566 66.7101 42.7943C67.0403 42.9502 67.3071 43.1876 67.5104 43.5066C67.7522 43.8773 67.8731 44.3085 67.8731 44.8004C67.8731 45.4455 67.6582 45.9908 67.2282 46.4363C66.9696 46.7107 66.679 46.9014 66.3566 47.0083C66.0039 47.1117 65.5622 47.1633 65.0315 47.1633H63.3723ZM64.4269 42.334C64.4269 42.4 64.4803 42.4534 64.5463 42.4534H64.7947C65.2313 42.4534 65.5504 42.3519 65.752 42.1487C65.9569 41.942 66.0593 41.639 66.0593 41.2399C66.0593 40.8514 65.9552 40.5574 65.7469 40.3578C65.5387 40.1546 65.2364 40.053 64.84 40.053H64.5463C64.4803 40.053 64.4269 40.1065 64.4269 40.1724V42.334ZM64.4269 45.8731C64.4269 45.9391 64.4803 45.9925 64.5463 45.9925H65.1524C65.6831 45.9925 66.0728 45.8821 66.3213 45.6611C66.5833 45.4223 66.7143 45.1193 66.7143 44.7522C66.7143 44.3958 66.5883 44.0965 66.3364 43.8541C66.0912 43.6153 65.6529 43.4959 65.0214 43.4959H64.5463C64.4803 43.4959 64.4269 43.5494 64.4269 43.6153V45.8731Z" fill="#2A6291"></path> <path d="M70.1571 41.9562C70.223 41.9562 70.2765 42.0097 70.2765 42.0756V47.0439C70.2765 47.1099 70.223 47.1633 70.1571 47.1633H69.2622C69.1963 47.1633 69.1428 47.1099 69.1428 47.0439V42.0756C69.1428 42.0097 69.1963 41.9562 69.2622 41.9562H70.1571ZM68.9715 39.7911C68.9715 39.5808 69.0437 39.399 69.1882 39.2458C69.3326 39.0925 69.5056 39.0159 69.7071 39.0159C69.912 39.0159 70.0867 39.0925 70.2311 39.2458C70.3755 39.3955 70.4478 39.579 70.4478 39.7964C70.4478 40.0138 70.3755 40.1992 70.2311 40.3524C70.09 40.5057 69.9171 40.5823 69.7122 40.5823C69.5073 40.5823 69.3326 40.5057 69.1882 40.3524C69.0437 40.1992 68.9715 40.012 68.9715 39.7911Z" fill="#2A6291"></path> <path d="M74.5181 42.7453C74.5453 42.8005 74.5233 42.8668 74.4697 42.897L73.7399 43.3092C73.6791 43.3435 73.6025 43.3182 73.5683 43.2573C73.4316 43.0136 73.2681 42.8918 73.0778 42.8918C72.9737 42.8918 72.8847 42.9292 72.8108 43.0041C72.7369 43.0754 72.6999 43.168 72.6999 43.2821C72.6999 43.4817 72.9183 43.6795 73.3549 43.8755C73.9562 44.1499 74.3609 44.403 74.5692 44.6346C74.7774 44.8663 74.8816 45.1782 74.8816 45.5702C74.8816 46.0727 74.7069 46.4933 74.3576 46.8319C74.0183 47.1526 73.6085 47.313 73.1282 47.313C72.3389 47.313 71.7705 46.9212 71.423 46.1375C71.3977 46.0804 71.4232 46.014 71.4793 45.9864L72.244 45.6103C72.3016 45.5819 72.3712 45.6044 72.4026 45.6605C72.5101 45.8523 72.5941 45.9772 72.6546 46.0353C72.7923 46.1707 72.9569 46.2385 73.1483 46.2385C73.5313 46.2385 73.7227 46.0531 73.7227 45.6825C73.7227 45.4686 73.5749 45.269 73.2793 45.0837C73.1651 45.0231 73.0509 44.9643 72.9367 44.9073C72.8225 44.8503 72.7066 44.7915 72.5891 44.7309C72.2599 44.5598 72.0281 44.3887 71.8938 44.2176C71.7225 44.0002 71.6368 43.7205 71.6368 43.3783C71.6368 42.9257 71.7829 42.5514 72.0752 42.2556C72.3741 41.9598 72.7369 41.8119 73.1635 41.8119C73.7609 41.8119 74.2124 42.123 74.5181 42.7453Z" fill="#2A6291"></path> <path d="M75.9043 38.2532C75.9043 38.1872 75.9578 38.1338 76.0237 38.1338H76.9186C76.9845 38.1338 77.038 38.1872 77.038 38.2532V42.1101C77.038 42.2152 77.1663 42.2714 77.2498 42.2076C77.5955 41.9438 77.9699 41.8119 78.3732 41.8119C78.9274 41.8119 79.3708 42.0026 79.7033 42.3839C79.9854 42.7154 80.1265 43.2447 80.1265 43.9717V47.0439C80.1265 47.1099 80.0731 47.1633 80.0071 47.1633H79.1123C79.0463 47.1633 78.9929 47.1099 78.9929 47.0439V44.084C78.9929 43.667 78.9223 43.3658 78.7813 43.1805C78.6436 42.9916 78.4202 42.8972 78.1112 42.8972C77.7148 42.8972 77.436 43.0272 77.2748 43.2874C77.1169 43.5512 77.038 44.0038 77.038 44.6453V47.0439C77.038 47.1099 76.9845 47.1633 76.9186 47.1633H76.0237C75.9578 47.1633 75.9043 47.1099 75.9043 47.0439V38.2532Z" fill="#2A6291"></path> <path d="M82.5817 38.1338C82.6477 38.1338 82.7011 38.1872 82.7011 38.2532V43.3409C82.7011 43.4488 82.8329 43.5013 82.9072 43.423L84.263 41.9935C84.2855 41.9697 84.3169 41.9562 84.3496 41.9562H85.5368C85.6424 41.9562 85.696 42.0833 85.6223 42.159L83.7604 44.0692C83.7191 44.1115 83.715 44.1776 83.7507 44.2247L85.8311 46.9718C85.8906 47.0505 85.8346 47.1633 85.7359 47.1633H84.5652C84.5273 47.1633 84.4916 47.1453 84.4691 47.1149L82.9674 45.0811C82.9232 45.0212 82.8356 45.0159 82.7845 45.0701L82.7337 45.1241C82.7128 45.1462 82.7011 45.1755 82.7011 45.206V47.0439C82.7011 47.1099 82.6477 47.1633 82.5817 47.1633H81.6869C81.621 47.1633 81.5675 47.1099 81.5675 47.0439V38.2532C81.5675 38.1872 81.621 38.1338 81.6869 38.1338H82.5817Z" fill="#2A6291"></path> <path d="M91.0065 44.7259C91.0054 44.791 90.9522 44.8431 90.8871 44.8431H87.6158C87.5465 44.8431 87.4914 44.902 87.4999 44.9707C87.5455 45.339 87.6724 45.6369 87.8806 45.8642C88.1124 46.1137 88.4096 46.2385 88.7724 46.2385C89.0546 46.2385 89.288 46.1672 89.4728 46.0246C89.6378 45.8949 89.8237 45.6648 90.0305 45.3344C90.0653 45.2788 90.138 45.2604 90.1945 45.2938L90.95 45.741C91.0056 45.7739 91.025 45.8451 90.9926 45.9009C90.8618 46.1257 90.7247 46.3219 90.5812 46.4897C90.4166 46.6786 90.2403 46.8354 90.0522 46.9602C89.8641 47.0814 89.6609 47.1705 89.4425 47.2275C89.2242 47.2845 88.9874 47.313 88.7321 47.313C87.9999 47.313 87.412 47.0635 86.9687 46.5646C86.5253 46.062 86.3036 45.3956 86.3036 44.5651C86.3036 43.7418 86.5186 43.0754 86.9485 42.5657C87.3818 42.0632 87.9562 41.8119 88.6716 41.8119C89.3938 41.8119 89.9648 42.056 90.3847 42.5443C90.8012 43.029 91.0095 43.7009 91.0095 44.5598L91.0065 44.7259ZM89.6882 43.8595C89.7657 43.8595 89.8229 43.7865 89.7988 43.7128C89.6208 43.169 89.2535 42.8972 88.6968 42.8972C88.5591 42.8972 88.4298 42.9203 88.3089 42.9667C88.188 43.0094 88.0771 43.0736 87.9763 43.1591C87.8789 43.2411 87.795 43.3409 87.7244 43.4585C87.6777 43.5364 87.6384 43.6213 87.6064 43.7133C87.5809 43.7865 87.6381 43.8595 87.7157 43.8595H89.6882Z" fill="#2A6291"></path> <path d="M93.2631 38.1338C93.3291 38.1338 93.3825 38.1872 93.3825 38.2532V43.3409C93.3825 43.4488 93.5143 43.5013 93.5886 43.423L94.9444 41.9935C94.9669 41.9697 94.9983 41.9562 95.031 41.9562H96.2182C96.3238 41.9562 96.3774 42.0833 96.3037 42.159L94.4418 44.0692C94.4005 44.1115 94.3964 44.1776 94.4321 44.2247L96.5125 46.9718C96.572 47.0505 96.516 47.1633 96.4173 47.1633H95.2466C95.2087 47.1633 95.173 47.1453 95.1505 47.1149L93.6488 45.0811C93.6046 45.0212 93.517 45.0159 93.4659 45.0701L93.4151 45.1241C93.3942 45.1462 93.3825 45.1755 93.3825 45.206V47.0439C93.3825 47.1099 93.3291 47.1633 93.2631 47.1633H92.3683C92.3024 47.1633 92.2489 47.1099 92.2489 47.0439V38.2532C92.2489 38.1872 92.3024 38.1338 92.3683 38.1338H93.2631Z" fill="#2A6291"></path> </svg> 